/* XPM */
static char *result[] = {
/* columns rows colors chars-per-pixel */
"32 32 7 1 ",
"  c black",
". c #6B442B",
"X c #986D4E",
"o c #B18953",
"O c #C6A271",
"+ c #D6C5AD",
"@ c #965D43",
/* pixels */
"@@@@@@@@@@@@@@@@@@@@@@@@@@@@@@@@",
"@@@@@@@@@@@@@@@@@@@@@@@@@@@@@@@@",
"@@@@@@@@@@@@@@@@@@@@@@@oo@@@@@@@",
"@@@@@@@@@@@@@@@@@@@@@@oOOo@@@@@@",
"@@@@@@@@@@@@@@@@@@@@@@O++OX@@@@@",
"@@@@@@@@@@@@@@@@@@@@@@+++OOX@@@@",
"@@@@@@@@@@@@@@@@@@@@@@++OOOOX@@@",
"@@@@@@@@@@@@@@@@@@@@XoOOOOOooX@@",
"@@@@@@@@@@@@@@@@@@XXoooOOOoooX@@",
"@@@@@@@@@@ooo@@@XXOOOOOooooXX.@@",
"@@@@@@@@@oO+OoXXoOooOOOOXX...@@@",
"@@@@@@@@@o+++OooOOOOoOoXX@@@@@@@",
"@@@@@@@@oO++OoOOOOOOOOO.@@@@@@@@",
"@@@@@@@@oO+OoOOOoOoOoOX.@@@@@@@@",
"@@@@@@@@XOOoOOOoOOOoOOX.@@@@@@@@",
"@@@@@@@@XXOOoOOooOOoOo.@@@@@@@@@",
"@@@@@@@XOoOOOoooOooOOX.@@@@@@@@@",
"@@@@@@@XoOOooOO+++OOoX.@@@@@@@@@",
"@@@@@@XOOOOOo+++++oOo.@@@@@@@@@@",
"@@@@@@XXXoOo+++++oOOX.@@@@@@@@@@",
"@@@@@XoOOXoO+++ooOOo.@@@@@@@@@@@",
"@@@@@XOOOOXOoooOOOoX.@@@@@@@@@@@",
"@@@@Xo  OOOoOOOoOoX.@@@@@@@@@@@@",
"@@@@XO  OOOooOOOoX.@@@@@@@@@@@@@",
"@@@@XOOOOOOOooooX.@@@@@@@@@@@@@@",
"@@@@XOOOOOOOoooX.@@@@@@@@@@@@@@@",
"@@@@.oOOOOOooXX.@@@@@@@@@@@@@@@@",
"@@@@@.oOOooXXX.@@@@@@@@@@@@@@@@@",
"@@@@@@.oooXX..@@@@@@@@@@@@@@@@@@",
"@@@@@@@.....@@@@@@@@@@@@@@@@@@@@",
"@@@@@@@@@@@@@@@@@@@@@@@@@@@@@@@@",
"@@@@@@@@@@@@@@@@@@@@@@@@@@@@@@@@"
};
