/* XPM */
static char *result[] = {
/* columns rows colors chars-per-pixel */
"32 32 8 1 ",
"  c #40A6A3",
". c #3CA6A3",
"X c #44A19F",
"o c #3F9D9B",
"O c #3B9997",
"+ c #369390",
"@ c #318C89",
"# c #2F877C",
/* pixels */
"OO++OOOOXX@@XXXXXXOOXXXXOO@@OO@@",
"@++OO+XooXO@Xo. Xo.o o .ooOo+@@#",
"#@Oo@@XOoXO@Xo.X oX  . .o +o+@##",
"@@@O+O+OXXOoOo Xoo XXOo. X++@+@+",
"+@+@o OOX Oooo ooOo oo.oX +Oo@@+",
"@#@OooOooo+oO X.o+oXooo  .++O@@@",
"@#@@OoOoooooOXXXo@+XOo.   o@+@@#",
"##@@+O+oO XXo.oo oOo+Xo.o.XO+O@@",
"+@+@O++oO+Xoo oOoo.OOo..oo XOX@@",
"@@+@+o+o@o .oX@Oo. O+oo O.oXO+@#",
"#O+OO+Oo@O O.X+@XX  Ooo OOX@+@@+",
"@@@+o+ooo+oo oOOoX . o  oOo@@@#@",
"@+@@O+oOo.+oXOO o ..OoXoO @O@@##",
"+##+++OooX+oOXOX. .o O+XOX@+@@##",
"@+O+++ooo  ooX.Xo.o  ooX+Xo+Oo##",
"##O+++o+XXo oOX +o. .oOOXX+XO+#+",
"##@#+@O+XooO o .+o  .oX+oXO o++#",
"@##@+@O+o o+ Oo oO X  XO+X+oO@+#",
"@@@@@o@OXXoO@O  oo O.  ooXOO++##",
"@+@+@X+@XoOX+O oX+ OoXXXoOXo@@@#",
"#+O+oXO@ooOoO+ oXOo@O . Oo.X@+#@",
"##oOooOo.OOoOo oXOo@+X oXooO@+#@",
"#@OO@X.o.ooo o.oooO+@oXXXOXX+@#+",
"##@+@OXX oooX  oOXO+ + +o+oO@@##",
"##@+++.X . O. Xoooo+X@++OO++#+#+",
"+@#+o+ Xo.X+ XoOoX OooO@++@+#+#+",
"@@O+o+Xoooo+XXooooo o++@o+@++#@#",
"@+@+o+oooX++ooo Ooo O+@OO+@O+@@#",
"@@@+++ooOX@+ooo ooooo@ oOO@O+@#@",
"#O@@oooOXX+oXoX o+o XOoOXOOo+@#@",
"@o@+XXOoXo@Xo XX @O o+ooXX+OO+#+",
"OO@@OXXOOOOOXXXXOOXXXXOOOOXX@@##"
};
