/* XPM */
static char *_64ff78962bf496eeeb191270a1ec9b5PZOB19ryHeXjg7YH[] = {
/* columns rows colors chars-per-pixel */
"32 32 7 1 ",
"  c #231305",
". c #3D1F07",
"X c #573414",
"o c #583010",
"O c #82562E",
"+ c #965D43",
"@ c #C0844C",
/* pixels */
"o++++++++++++++++++++++++++++++o",
"oo++++++++++++++++++++++++++++oo",
"oo++++++++++++++++++++++++++++oo",
"o@o++++++++++++++++++++++++++o@o",
"o@o++++++++++++++++++++++++++o@o",
"o@@o++++++++++++++++++++++++o@@o",
"o@@o++++++++++++++++++++++++o@@o",
"o@@@o++++++++++++++++++++++o@@@o",
"o@@@ooooooooooOOOOoooooooooo@@@o",
"o@@@@                      @@@@o",
"o@@@@                      @@@@o",
"oo@@@                      @@@oo",
"+o@@@                      @@@o+",
"++o@@                      @@o++",
"++o@@                      @@o++",
"+++o@                      @o+++",
"+++o@                      @o+++",
"++++o                      o++++",
"++++o                      o++++",
"+++++.........XXXX.........+++++",
"+++++.@@@@@@@@XXXX@@@@@@@@.+++++",
"+++++.@@@@@@@@XXXX@@@@ @@@.+++++",
"+++++.@@@@@@@@@@@@@@@   @@.+++++",
"+++++.@@@@@@@@@@@@@@ @ @ @.+++++",
"+++++.@   @   @   @@@@ @@@.+++++",
"+++++.@ @@@ @ @@ @@@@@ @@@.+++++",
"+++++.@ @@@   @@ @@@@@ @@@.+++++",
"+++++.@   @ @ @@ @@@@@@@@@.+++++",
"+++++.@@@@@@@@@@@@@@@@@@@@.+++++",
"+++++......................+++++",
"++++++++++++++++++++++++++++++++",
"++++++++++++++++++++++++++++++++"
};
