/* XPM */
static char *_4fcfaef347444299c6c2d376f3fd7f2UNh7fOVwTnuorJDR[] = {
/* columns rows colors chars-per-pixel */
"32 32 142 2 ",
"   c #050000",
".  c #0A0202",
"X  c #0E0B0B",
"o  c #110604",
"O  c #100708",
"+  c #130B0B",
"@  c #180C0D",
"#  c #1A100E",
"$  c #140E10",
"%  c #180F10",
"&  c #141312",
"*  c #1A1414",
"=  c #1A1917",
"-  c #1E1A1A",
";  c #231717",
":  c #241917",
">  c #231C1B",
",  c #2A201F",
"<  c #281F20",
"1  c #252324",
"2  c #2B2324",
"3  c #2C2827",
"4  c #2E2528",
"5  c #2D2A2A",
"6  c #302426",
"7  c #322628",
"8  c #332B2C",
"9  c #392B2A",
"0  c #3E302F",
"q  c #965D43",
"w  c #965D43",
"e  c #965D43",
"r  c #965D43",
"t  c #965D43",
"y  c #965D43",
"u  c #965D43",
"i  c #965D43",
"p  c #965D43",
"a  c #965D43",
"s  c #965D43",
"d  c #965D43",
"f  c #965D43",
"g  c #965D43",
"h  c #965D43",
"j  c #965D43",
"k  c #965D43",
"l  c #965D43",
"z  c #965D43",
"x  c #965D43",
"c  c #965D43",
"v  c #965D43",
"b  c #965D43",
"n  c #965D43",
"m  c #965D43",
"M  c #5B5354",
"N  c #5B5956",
"B  c #5C5759",
"V  c #5D5B5A",
"C  c #625756",
"Z  c #615957",
"A  c #645C5B",
"S  c #6C5E5E",
"D  c #61605E",
"F  c #6C605F",
"G  c #6F5F60",
"H  c #666161",
"J  c #6E6060",
"K  c #6C6261",
"L  c #6D6362",
"P  c #6C6263",
"I  c #6E6262",
"U  c #6F6363",
"Y  c #6C6060",
"T  c #6C6462",
"R  c #6F6462",
"E  c #6F6667",
"W  c #6D6363",
"Q  c #6F696B",
"!  c #706061",
"~  c #716162",
"^  c #716362",
"/  c #706464",
"(  c #716565",
")  c #726464",
"_  c #736565",
"`  c #716664",
"'  c #726765",
"]  c #716766",
"[  c #726666",
"{  c #736767",
"}  c #746665",
"|  c #716363",
" . c #746967",
".. c #746867",
"X. c #726668",
"o. c #736769",
"O. c #716869",
"+. c #726A68",
"@. c #73696A",
"#. c #736A6B",
"$. c #756969",
"%. c #766868",
"&. c #74686A",
"*. c #766A6A",
"=. c #756D6B",
"-. c #776C6A",
";. c #756C6D",
":. c #746E6E",
">. c #756B6B",
",. c #796B6A",
"<. c #796B6B",
"1. c #796A6D",
"2. c #796E6C",
"3. c #796C6D",
"4. c #76716E",
"5. c #77726F",
"6. c #7B706E",
"7. c #7B6F71",
"8. c #757171",
"9. c #7B7171",
"0. c #7C7472",
"q. c #965D43",
"w. c #965D43",
"e. c #965D43",
"r. c #965D43",
"t. c #965D43",
"y. c #965D43",
"u. c #965D43",
"i. c #965D43",
"p. c #965D43",
"a. c #965D43",
"s. c #965D43",
"d. c #965D43",
"f. c #965D43",
"g. c #965D43",
"h. c #965D43",
"j. c #965D43",
"k. c #965D43",
"l. c #965D43",
"z. c #965D43",
"x. c snow",
"c. c #FFFCFB",
/* pixels */
"k m b k b c b k c c c v c v - 3 V c c c c c v h v V   f m k c k ",
"k k c k k b b c v c v c v N >   = N n c m v z M N .   i m c n j ",
"c k c b b k k c c k k v v 3 t a y 1 N n m v v v , h a 5 d b c m ",
"c b b c z b c b k c v k V . a 4.B   e e 8 8 e 3   t.0.+ 5 m b j ",
"b c c k z z c c m k k v B . i +.M   + @ + + + X @ A o.& 5 m n c ",
"c k b b z z c z h m c v B . g ] C . p.1.7.#.5.=.u.. o.* 5 N z m ",
"c b c c z b z c k k k m A O u ( G %.G I I I A T G *.#.+ r m b c ",
"c k b k b z c b v k v M   M ( I P I G x A I Y Y G l P #.< = M c ",
"k c b c b c c b b c k b   M ~ S I F x x.g.R F F g c.0.+.3 * N m ",
"b b c b b c c c c b c M   M S I ~ F l.F : s } ,.z.i : Z 3 - m j ",
"b c b c c c c c k m k M   M ( ~ S S j.  . u ^ } k.  . V 3 & V n ",
"k c b c b b b c n c c b . M ( S ~ _ # . ; x G C + . * A 5 - m c ",
"c b c b b c c c c c m m   B F I S ~ 2.+ A  .F M w.  #.#.1 = m n ",
"c c b c k c c n n c z m   x ] I _ S ! ,.` S r @ U 9.P E 5 1 m m ",
"k k c c k c b n j n n m A   s *.S ! G G *.; 2 C . y.p.+ 3 B k c ",
"b b b b b b m B V m c b k V @ , y.2.G ! ( F F ] i.7.  y m b c m ",
"k k z m z V +     & V m k b z q . O 3.o.%.;.E A . O d j m k c b ",
"m k k v B > i f h y = m k b M f q u > 2 < > 7 8 q e m b c c z c ",
"k n k k 8 - I M y t < m k h k m M 7 6 7 4 7 *   H n c k j m c c ",
"c n m e * 8.z 4 X - V b c m n j 8 * 7.( o.+.x 2 y M j b c c c c ",
"n j e X 8.T . y V V z h m f k 5 @ f.S ! } S ] S   B c m c c c c ",
"n e X t.4.  k m k z v v N X   3 3.F S ^ ! ! I B   V k k c b c c ",
"n e = H   k v v v c v D   M ~ _ ~ S ! S ~ F ` C   V z m n k c c ",
"M e & Q   N v c c v m   G G _ ! ! ~ ! G ~ ! ` A   N k k k b c c ",
"m q $ t.B & j z m f & m S ( S ~ } S ~ %.S *.l > f z v k c c k c ",
"b d 4 e 8.  h b z l   ;.I ` ~ x u _ ~ 9 S G i   M v v k v v k c ",
"b m d   r.< w d M d   ;.S ~ ( p . 2.I . x ] y   V v c c n k v k ",
"z m i X G a.* w g u + +.S I I g ; S -.. M T r * m v c v k k k n ",
"n c m b   G 8.w . * f.S T F ` ` C   w.. Z < - Z k k n m k k b b ",
"b j b b m   G r.e.e.-.T A I A ` M   9.  A 5 - m k k c c n b b c ",
"k n b b n H     .     f.2.2.2.2.V   h.  F 3 = M v n k k c c b k ",
"b b b m n m d c f k g . + o o o * z X h & 8 k v k n c k b k k b "
};
