/* XPM */
static char *bb457d4945f748d6ab8b8578fb42ac11aweModHsNbmspBJO[] = {
/* columns rows colors chars-per-pixel */
"32 32 5 1 ",
"  c #9B6045",
". c #985F45",
"X c #8B4513",
"o c #965D43",
"O c #8B4513",
/* pixels */
"..oooooooo.......XXX..oooooooo..",
".....   ......OOo...oooooooo.ooo",
"XX  .. ..XX.oooooo.    .OO......",
".XXX      XXXooo..   .oOoOOoo...",
"..oOOOOooooooooooooo....XX  XX..",
"....oO..oooooooo...ooooXXoooooo.",
"...ooooX.XoOOo.......oooooooo...",
".....XXXXoOO...   XXoo   . .....",
"X  . .ooooooo.  .oooXXXX     .XX",
"XX.   ..ooooooooooooooo.oooooo..",
"oo.....ooooooooOOOo........ooooo",
"oooo.....ooooo..oOOo..ooooooOOOo",
"o..  .  ..ooo......      XX..oOO",
".....     .ooooo.    . XXX.ooOOo",
".ooo.....ooooooooOOOOoo.........",
"oo...oOOooooooooooOOOOOooo.   ..",
"XXX   oOOO.   XoOOOOoo....      ",
"Xoooo   .    XXXXXX     ....   X",
"..oo....ooooXXXooX   .ooooooo ..",
"ooooo.oooooooooOOO..  ...oo.....",
"....      .oooOOoooo....oooo....",
"...... ..  ...oOOo....   .......",
"OOoX    ..XX......   XX.  . ..oO",
"o.XXXX.ooooXX. .    XXXX.  oooOO",
"..ooooOOOOoOOoooo.....oooooo.XX.",
"......ooOOOOoooo....ooooooooooXX",
".   .   ...oooooooOOOo..XXXXX   ",
"....      ....oooooOOOoo.XX    .",
"...XXooooooooooo.XXX   XXoooooo.",
"....XXX.oooooooooooXX   XXoo....",
"ooooooooOOoooo.  XXX..oooooooo..",
"...oooOOO..     XX......oooo...."
};
