/* XPM */
static char *_6de657c700f498dfd7e3de077958c22ANkVcUzWjE0AKSQE[] = {
/* columns rows colors chars-per-pixel */
"32 32 10 1 ",
"  c #161616",
". c #231305",
"X c #3D1F07",
"o c #573414",
"O c #583010",
"+ c #82562E",
"@ c #965D43",
"# c #C0844C",
"$ c #DCA878",
"% c #EAEAEA",
/* pixels */
"@@@@@@@@@@@@@@@@@@@@@@@@@@@@@@@@",
"@@@@@@@@@@@@@@@@@@@@@@@@@@@@@@@@",
"@@@@@@@@@@@@@@@@@@@@@@@@@@@@@@@@",
"@@@@@@@@@@@@@@@@@@@@@@@@@@@@@@@@",
"@@@@@@@@@@@@@@@@@@@@@@@@@@@@@@@@",
"@@@@@@@@@@@@@@@@@@@@@@@@@@@@@@@@",
"@@@@@@@@@@@@@@@@@@@@@@@@@@@@@@@@",
"@@@@@@@@@@@@@@@@@@@@@@@@@@@@@@@@",
"@@@@@OOOOOOOOO++++OOOOOOOOO@@@@@",
"@@@@@O$$$$$$$$++++$$$$$$$$O@@@@@",
"@@@@@O$%%%%%$$++++$$$$$$$$O@@@@@",
"@@@@@O$% % %$$++++$$$$$$$$O@@@@@",
"@@@@@O$% % %$$++++$$$$$$$$O@@@@@",
"@@@@@O$% % %$$++++$$$$$$$$O@@@@@",
"@@@@@O$% % %$$++++$$$$$$$$O@@@@@",
"@@@@@O$%%%%%$$++++$$$$$$$$O@@@@@",
"@@@@@O$$$$$$$$++++$$$$$$$$O@@@@@",
"@@@@@O$$$$$$$$++++$$$$$$$$O@@@@@",
"@@@@@O$$$$$$$$++++$$$$$$$$O@@@@@",
"@@@@@XXXXXXXXXooooXXXXXXXXX@@@@@",
"@@@@@X########oooo########X@@@@@",
"@@@@@X########oooo####.###X@@@@@",
"@@@@@X###############...##X@@@@@",
"@@@@@X##############.#.#.#X@@@@@",
"@@@@@X#...#...#...####.###X@@@@@",
"@@@@@X#.###.#.##.#####.###X@@@@@",
"@@@@@X#.###...##.#####.###X@@@@@",
"@@@@@X#...#.#.##.#########X@@@@@",
"@@@@@X####################X@@@@@",
"@@@@@XXXXXXXXXXXXXXXXXXXXXX@@@@@",
"@@@@@@@@@@@@@@@@@@@@@@@@@@@@@@@@",
"@@@@@@@@@@@@@@@@@@@@@@@@@@@@@@@@"
};
