/* XPM */
static char *result[] = {
/* columns rows colors chars-per-pixel */
"32 32 90 1 ",
"  c #050000",
". c #0A0202",
"X c #0E0A0B",
"o c #965D43",
"O c #130907",
"+ c #110708",
"@ c #140C0C",
"# c #180C0E",
"$ c #19100E",
"% c #140E10",
"& c #141313",
"* c #1A1313",
"= c #1A1917",
"- c #1E1B1A",
"; c #241917",
": c #231C1B",
"> c #281F20",
", c #252122",
"< c #2C2424",
"1 c #2C2827",
"2 c #2E2629",
"3 c #2E2B2A",
"4 c #302426",
"5 c #322728",
"6 c #332C2C",
"7 c #392B2A",
"8 c #3E302F",
"9 c #362F31",
"0 c #392F32",
"q c #965D43",
"w c #965D43",
"e c #965D43",
"r c #965D43",
"t c #965D43",
"y c #965D43",
"u c #965D43",
"i c #965D43",
"p c #965D43",
"a c #965D43",
"s c #965D43",
"d c #965D43",
"f c #965D43",
"g c #965D43",
"h c #965D43",
"j c #965D43",
"k c #965D43",
"l c #965D43",
"z c #965D43",
"x c #965D43",
"c c #965D43",
"v c #965D43",
"b c #965D43",
"n c #965D43",
"m c #965D43",
"M c #5B5758",
"N c #5D5B5A",
"B c #645756",
"V c #615957",
"C c #645C5B",
"Z c #6B5E5E",
"A c #61605E",
"S c #6C605F",
"D c #6D5F60",
"F c #715E60",
"G c #656161",
"H c #6D6262",
"J c #6F696B",
"K c #726464",
"L c #756967",
"P c #726768",
"I c #756A6A",
"U c #796D6C",
"Y c #76716F",
"T c #7D716F",
"R c #7C6F73",
"E c #767171",
"W c #7C7374",
"Q c #7F7478",
"! c #7A7879",
"~ c #817374",
"^ c #817977",
"/ c #847679",
"( c #847979",
") c #878382",
"_ c #8F8482",
"` c #998F8D",
"' c #A59D9B",
"] c #E9DFDE",
"[ c #F7EDEC",
"{ c #FFFBFB",
/* pixels */
"vvfcp NvflfkkkvN1-bklkkkklxfxfvx",
"dvxbi  mzhllkbM& :mlflklkkxffxvd",
"bxxp1ip>lllmlM<eie3llffkhfhxxbbx",
"dbb3%W( 1q36q9 mYy Nfkbfklhhxdxf",
"bbb3&PC#@@@@## nLy.mlffbkxfxdxxx",
"bdm1*P.QIYIYU/.nLa mhfbfxfxxvvvd",
"hhbe#PUZHAHKFZLZLeOClfhldxxfdxbx",
"fm-:IHgHHZHCjDKKSKn nldlvxxxvkxf",
"lm=<IW{gSSH_{jZZKKn nfklxdvvbxxd",
"dn-1V;y[YLg;Z]HKZZn nlhkxvdxxvbv",
"vm*<N  'LLt..`ZZKKz bfbdxdvxvxxx",
"km-5C*.@BFj*.$KFHHz.llkkvxbxxxdk",
"kb-<EP.WzSLCOYKZZHM blbkdvxvxvxx",
"bb,2JDUKOtSKUFZKKKg bkfbvxfxdvfv",
"xdM5+/Q.B<;LFFFSIa.Nbkvdvvdvxxxd",
"bxxbt.R~LFSKFST~>*VhvbvNmmvxxxbv",
"bvfbfyX.CPIIPUO.6hhfkN&  &Cflhfh",
"xdxvbbqq55:><<t6pmxfm=rdpy;Mbhfb",
"xvbddxbC.*555<7lbfdxb:eynH;6bdbk",
"bdvxxdne>hIPKU$7dvbblN=O<hW&qbvd",
"dvvdbfm CIDKFS($3fpbdlmVr+GE qdv",
"vbvvffC BDHDHSFY2 XNlllkxf E!&qb",
"bdfvbfC VPDKZFFFPKn Alflxbf G=qv",
"vvvvlfm CKDKFFFZHKDC bkkfkM J%qb",
"ffdvflha:aUZLFZKFZKZn*plkp&MW%6n",
"xxbvfllb.tSC7KLtjLHHI phbs Eq2ix",
"ffvvkflC.eIz.HT.uKHHU ina0<W inx",
"vfdxlklb&wHn.IB;aFHHP@wa7*QMXrMf",
"xfffbvflC=>V.W.CKLSHD!*.0QN vbvv",
"hbbfkkfkb-5C E nKCKCHIQ~QD Mbvdv",
"fxlffkklm=1S ) VITUU/     Dkfvbk",
"xffkkklkld6&f.l$oooO.dkpfpbxvdvk"
};
